# xmcd
#
# Track frame offsets:
#	150
#	22275
#	36483
#	51143
#	57693
#	63730
#	97180
#	108773
#	111580
#	131258
#	163150
#	182185
#	184635
#	211713
#
# Disc length: 3090 seconds
#
# Revision: 15
# Processed by: cddbd v1.5.1PL0 Copyright (c) Steve Scherf et al.
# Submitted via: dBpowerAMP V4.0
#
DISCID=d70c100e,d80c100e
DTITLE=Pink Floyd - Is here anybody out there? - The wall [LIVE] 1980-81 CD1
DYEAR=1981
DGENRE=Rock
TTITLE0=Hey You
TTITLE1=Is there anybody out there?
TTITLE2=Nobody Home
TTITLE3=Vera
TTITLE4=Bring the boys back home
TTITLE5=Comfortably Numb
TTITLE6=The Show must go on
TTITLE7=MC:Atmos
TTITLE8=In the Flesh
TTITLE9=Run like Hell
TTITLE10=Waiting for the Worms
TTITLE11=Stop
TTITLE12=The Trial
TTITLE13=Outside the Wall
EXTD=
EXTT0=
EXTT1=
EXTT2=
EXTT3=
EXTT4=
EXTT5=
EXTT6=
EXTT7=
EXTT8=
EXTT9=
EXTT10=
EXTT11=
EXTT12=
EXTT13=
PLAYORDER=
